<svg id="Layer_1" data-name="Layer 1" xmlns="http://www.w3.org/2000/svg" viewBox="0 0 35 35"><defs><style>.cls-1{fill:#512833;}.cls-2{fill:#934358;}.cls-3{fill:#e5637c;}</style></defs><title>slides</title><polygon class="cls-1" points="6.56 0.69 6.31 2.07 17.06 3.12 19.89 3.12 6.56 0.69"/><polygon class="cls-1" points="32.07 5.34 29.35 33.35 19.1 32.36 29.81 34.31 35 5.88 32.07 5.34"/><polygon class="cls-2" points="17.27 32.02 15.66 32.02 19.1 32.36 17.27 32.02"/><polygon class="cls-2" points="3.38 1.79 3.25 3.12 6.12 3.12 17.06 3.12 6.31 2.07 3.38 1.79"/><polygon class="cls-2" points="28.91 4.27 28.91 4.76 28.91 32.02 17.27 32.02 19.1 32.36 29.35 33.35 32.07 5.34 32.15 4.58 28.91 4.27"/><path class="cls-3" d="M19.89,3.12H0V32H28.91V3.12ZM17.45,23.51a4.31,4.31,0,0,1-3,1.13,8,8,0,0,1-3-.51c-.84-.35-1.26-.68-1.26-1a1.69,1.69,0,0,1,.32-.75c.21-.34.4-.51.56-.51a2.77,2.77,0,0,1,.41.24,5.14,5.14,0,0,0,1.08.48,5.28,5.28,0,0,0,1.7.24,2.37,2.37,0,0,0,1.63-.57,1.91,1.91,0,0,0,.64-1.53A2,2,0,0,0,16,19.22a5.78,5.78,0,0,0-2.25-1A5.59,5.59,0,0,1,11.3,17a3,3,0,0,1-.76-2.25A3.24,3.24,0,0,1,11.7,12.2a4.4,4.4,0,0,1,3-1,7.36,7.36,0,0,1,2.29.33c.67.22,1,.46,1,.73a1.75,1.75,0,0,1-.29.84c-.19.35-.36.52-.51.52l-.33-.15A4,4,0,0,0,15,13a2.73,2.73,0,0,0-1.66.44,1.38,1.38,0,0,0-.6,1.15,1.45,1.45,0,0,0,.44,1.11,4.33,4.33,0,0,0,1.5.73A7.73,7.73,0,0,1,17.85,18a3.63,3.63,0,0,1,.84,2.62A3.7,3.7,0,0,1,17.45,23.51Z"/></svg>