<svg id="Layer_1" data-name="Layer 1" xmlns="http://www.w3.org/2000/svg" viewBox="0 0 35 35"><defs><style>.cls-1{fill:#0071a1;}</style></defs><title>slideshare</title><path class="cls-1" d="M32.41,0H2.58A2.55,2.55,0,0,0,0,2.52v30A2.56,2.56,0,0,0,2.58,35H32.41A2.56,2.56,0,0,0,35,32.47V2.52A2.56,2.56,0,0,0,32.41,0Zm-22,29.82H5.19V13.12h5.19Zm-2.59-19a3,3,0,1,1,3-3A3,3,0,0,1,7.79,10.84Zm22,19h-5.2V21.7c0-1.94,0-4.43-2.69-4.43s-3.12,2.11-3.12,4.29v8.26H13.64V13.12h5V15.4h.08a5.44,5.44,0,0,1,4.91-2.69c5.25,0,6.23,3.46,6.23,8Z"/></svg>