<svg id="Layer_1" data-name="Layer 1" xmlns="http://www.w3.org/2000/svg" xmlns:xlink="http://www.w3.org/1999/xlink" viewBox="0 0 35 35"><defs><style>.cls-1{fill:url(#linear-gradient);}.cls-2{fill-opacity:0.5;}.cls-3{fill:#fff;}</style><linearGradient id="linear-gradient" x1="-28.03" y1="-28.67" x2="-28.03" y2="-29.4" gradientTransform="matrix(48, 0, 0, -39, 1363, -1115)" gradientUnits="userSpaceOnUse"><stop offset="0" stop-color="#3cb579"/><stop offset="1" stop-color="#004a4a"/></linearGradient></defs><title>speakerdeck</title><g id="speaker-deck"><path id="square" class="cls-1" d="M-.07,4.73a1.5,1.5,0,0,1,1.5-1.5H33.57a1.5,1.5,0,0,1,1.5,1.5V30.27a1.5,1.5,0,0,1-1.5,1.5H1.43a1.5,1.5,0,0,1-1.5-1.5Z"/><g id="symbol"><rect id="Rectangle-path" class="cls-2" x="9.59" y="12.89" width="15.92" height="9.26" rx="0.37" ry="0.37"/><polygon id="Path" class="cls-3" points="11.87 17.52 16.41 15.2 16.41 19.84 11.87 17.52 11.87 17.52"/><polygon id="Path-2" data-name="Path" class="cls-3" points="23.24 17.52 18.69 15.2 18.69 19.84 23.24 17.52 23.24 17.52"/></g></g></svg>