<svg id="Layer_1" data-name="Layer 1" xmlns="http://www.w3.org/2000/svg" viewBox="0 0 35 35"><defs><style>.cls-1{fill:#00adef;}</style></defs><title>vimeo</title><path class="cls-1" d="M35,6.56V28.44A6.59,6.59,0,0,1,28.44,35H6.56a6.28,6.28,0,0,1-4.63-1.93A6.28,6.28,0,0,1,0,28.44V6.56A6.28,6.28,0,0,1,1.93,1.93,6.28,6.28,0,0,1,6.56,0H28.44a6.28,6.28,0,0,1,4.63,1.93A6.28,6.28,0,0,1,35,6.56Zm-5.56,5.06q.22-4.92-3.67-5.06-5.26-.18-7.11,6a4.71,4.71,0,0,1,1.87-.43c1.29,0,1.85.73,1.69,2.18a9.53,9.53,0,0,1-1.69,3.81c-1.06,1.67-1.86,2.51-2.39,2.51s-1.28-1.29-1.87-3.85c-.2-.83-.54-2.76-1-5.82-.45-2.87-1.67-4.21-3.64-4-.9.11-2.14.87-3.74,2.28L6,10.8,4.17,12.44,5.35,14a8.85,8.85,0,0,1,2-1.19c.86,0,1.68,1.36,2.44,4.08.22.84.57,2.09,1,3.75s.8,2.91,1,3.75q1.55,4.08,3.73,4.08,3.58,0,8.73-6.7Q29.3,15.29,29.44,11.62Z"/></svg>