<?xml version="1.0" encoding="UTF-8"?>
<!-- Generator: Adobe Illustrator 21.0.0, SVG Export Plug-In . SVG Version: 6.00 Build 0)  -->
<svg version="1.1" xmlns="http://www.w3.org/2000/svg" xmlns:xlink="http://www.w3.org/1999/xlink" x="0px" y="0px" viewBox="0 0 170 40" style="enable-background:new 0 0 170 40;" xml:space="preserve">
<style type="text/css">
	.st0{display:none;}
	.st1{display:inline;}
	.st2{fill:#FFFFFF;}
	.st3{fill:#414042;}
	.st4{fill:#00AEEF;}
</style>
<g id="Calque_1" class="st0">
	<g class="st1">
		<path class="st2" d="M160.3,27.3l1.1-1.3c1.3,1.5,3.5,3,6.4,3c4.2,0,5.4-2.3,5.4-4.1c0-6-12.3-2.9-12.3-10.1c0-3.4,3-5.5,6.7-5.5    c3.1,0,5.4,1.1,7,2.9l-1.2,1.3c-1.5-1.8-3.6-2.6-5.9-2.6c-2.7,0-4.8,1.6-4.8,3.8c0,5.3,12.3,2.4,12.3,10c0,2.6-1.8,5.8-7.3,5.8    C164.4,30.6,161.8,29.3,160.3,27.3z"/>
		<path class="st2" d="M179.3,22.4V9.7h1.8v12.6c0,4.2,2.2,6.7,6.2,6.7c4.1,0,6.2-2.5,6.2-6.7V9.7h1.8v12.6c0,5.1-2.7,8.2-8,8.2    C182,30.6,179.3,27.4,179.3,22.4z"/>
		<path class="st2" d="M200.4,30.2V9.7h7.7c3.9,0,6.2,2.8,6.2,6s-2.3,6-6.2,6h-5.9v8.5H200.4z M212.4,15.7c0-2.6-1.8-4.4-4.5-4.4    h-5.8v8.8h5.8C210.6,20.1,212.4,18.3,212.4,15.7z"/>
		<path class="st2" d="M217.9,30.2V9.7h7.7c3.9,0,6.2,2.8,6.2,6s-2.3,6-6.2,6h-5.9v8.5H217.9z M230,15.7c0-2.6-1.8-4.4-4.5-4.4h-5.8    v8.8h5.8C228.1,20.1,230,18.3,230,15.7z"/>
		<path class="st2" d="M234.7,20c0-6,3.9-10.6,10-10.6c6,0,10,4.6,10,10.6s-4,10.6-10,10.6C238.7,30.6,234.7,26,234.7,20z M252.8,20    c0-5.2-3.2-9-8.1-9c-5,0-8.1,3.8-8.1,9c0,5.2,3.1,9,8.1,9C249.6,29,252.8,25.2,252.8,20z"/>
		<path class="st2" d="M271,30.2l-5.8-8.5h-4.5v8.5H259V9.7h7.7c3.5,0,6.2,2.2,6.2,6c0,3.7-2.6,5.8-5.7,5.9l5.9,8.6H271z M271,15.7    c0-2.6-1.8-4.4-4.6-4.4h-5.8v8.8h5.8C269.2,20.2,271,18.3,271,15.7z"/>
		<path class="st2" d="M282.2,30.2V11.3h-6.7V9.7h15.2v1.6H284v18.9H282.2z"/>
	</g>
	<g class="st1">
		<path class="st3" d="M98.4,22"/>
		<path class="st4" d="M66.1,27.5h9.2L75,30.4l-13.4,0L70.5,12h-8.8V9.2H75L66.1,27.5z"/>
		<path class="st3" d="M80.1,24.3"/>
		<polyline class="st4" points="79.9,24.4 75,27.5 75,30.4 81.7,26.3   "/>
		<g>
			<path class="st4" d="M127.8,23.6l2.4,1.4c-0.9,1.7-2.2,3.1-3.9,4.1c-1.7,1.1-3.6,1.6-5.6,1.6c-2.9,0-5.5-1.1-7.6-3.2     c-2.1-2.1-3.2-4.7-3.2-7.6c0-3,1.1-5.6,3.2-7.7c2.1-2.1,4.7-3.2,7.6-3.2c1.9,0,3.6,0.5,5.3,1.4c1.7,0.9,2.9,2.1,3.8,3.6l-14,12.4     c1.4,1.1,3,1.6,4.9,1.6c1.5,0,2.9-0.4,4.2-1.2C126.2,26,127.1,25,127.8,23.6z M114,24.4l12-10.6c-1.5-1.3-3.3-2-5.3-2     c-2.3,0-4.2,0.8-5.7,2.3c-1.6,1.6-2.3,3.5-2.3,5.7C112.6,21.5,113.1,23,114,24.4z"/>
		</g>
		<g>
			<g>
				<path class="st4" d="M94,23.5l2.4,1.4c-0.9,1.7-2.2,3.1-3.9,4.1c-1.7,1.1-3.6,1.6-5.6,1.6c-2.9,0-5.5-1.1-7.6-3.2      c-2.1-2.1-3.2-4.7-3.2-7.6c0-3,1.1-5.6,3.2-7.7c2.1-2.1,4.7-3.2,7.6-3.2c1.9,0,3.6,0.5,5.3,1.4c1.7,0.9,2.9,2.1,3.8,3.6L82,26.2      c1.4,1.1,3,1.6,4.9,1.6c1.5,0,2.9-0.4,4.2-1.2C92.3,25.9,93.3,24.9,94,23.5z M80.1,24.3l12-10.6c-1.5-1.3-3.3-2-5.3-2      c-2.3,0-4.2,0.8-5.7,2.3c-1.6,1.6-2.3,3.5-2.3,5.7C78.8,21.4,79.2,22.9,80.1,24.3z"/>
			</g>
		</g>
		<g>
			<path class="st4" d="M109.6,9.2h3l-9,21.2l-9-21.2h3l6,14.1L109.6,9.2z"/>
		</g>
		<g>
			<path class="st4" d="M130.5,30.3V9.8l2.4,1.9c1.6-1.6,3.5-2.5,5.8-2.5s4.3,0.8,5.8,2.4c1.6,1.6,2.4,3.5,2.4,5.8v12.9h-2.8V17.4     c0-1.6-0.5-2.9-1.6-3.9c-1.1-1-2.3-1.5-3.8-1.5c-1.5,0-2.8,0.5-3.8,1.6c-1.1,1.1-1.6,2.3-1.6,3.8v12.9H130.5z"/>
		</g>
		<g>
			<path class="st4" d="M149.9,12.7h-3.7V9.9h3.7V4.1l2.8-1.4v7.1h3.7v2.8h-3.7v17.8h-2.8V12.7z"/>
		</g>
		<g>
			<g>
				<path class="st4" d="M5.7,18.9L1.2,30.6L-7.3,9.4h3l5.5,13.7l4.6-11.9l4.6,11.9l5.5-13.7h3l-8.5,21.2L5.7,18.9z"/>
			</g>
		</g>
		<path class="st4" d="M30.2,11.8c-2.3,0-4.2,0.8-5.7,2.3c-1.6,1.6-2.3,3.5-2.3,5.7c0,1.6,0.5,3.1,1.4,4.5l12-10.6    C34,12.4,32.2,11.8,30.2,11.8z"/>
		<g>
			<path class="st4" d="M55.5,14.1c-1.6-1.6-3.5-2.3-5.7-2.3c-2,0-3.8,0.7-5.3,2l12,10.6c0.9-1.4,1.4-2.9,1.4-4.5     C57.8,17.6,57.1,15.7,55.5,14.1z"/>
			<path class="st4" d="M49.9,6.5c-3.9,0-7.4,1.7-9.9,4.4c-2.4-2.7-6-4.4-9.9-4.4c-7.4,0-13.3,6-13.3,13.3c0,7.4,6,13.3,13.3,13.3     c3.9,0,7.4-1.7,9.9-4.4c2.4,2.7,6,4.4,9.9,4.4c7.4,0,13.3-6,13.3-13.3C63.2,12.5,57.2,6.5,49.9,6.5z M35.8,29.1     c-1.7,1.1-3.6,1.6-5.6,1.6c-2.9,0-5.5-1.1-7.6-3.2c-2.1-2.1-3.2-4.7-3.2-7.6c0-3,1.1-5.6,3.2-7.7c2.1-2.1,4.7-3.2,7.6-3.2     c1.9,0,3.6,0.5,5.3,1.4c1.7,0.9,2.9,2.1,3.8,3.6l-14,12.4c1.4,1.1,3,1.6,4.9,1.6c1.5,0,2.9-0.4,4.2-1.2c1.3-0.8,2.2-1.8,2.9-3.2     l2.4,1.4C38.8,26.7,37.5,28.1,35.8,29.1z M57.4,27.5c-2.1,2.1-4.7,3.2-7.6,3.2c-2,0-3.9-0.5-5.6-1.6c-1.7-1.1-3-2.4-3.9-4.1     l2.4-1.4c0.7,1.3,1.7,2.4,2.9,3.2c1.3,0.8,2.7,1.2,4.2,1.2c1.8,0,3.5-0.5,4.9-1.6L40.6,14c0.9-1.4,2.2-2.6,3.8-3.6     C46.1,9.5,47.9,9,49.8,9c2.9,0,5.5,1.1,7.6,3.2c2.1,2.1,3.2,4.7,3.2,7.7C60.6,22.8,59.5,25.4,57.4,27.5z"/>
		</g>
	</g>
</g>
<g id="Calque_2">
	<g>
		<path class="st4" d="M76.4,29.5h9.4l-0.3,2.9l-13.8,0l9.2-18.8h-9v-2.9h13.6L76.4,29.5z"/>
		<g>
			<path class="st2" d="M90.8,26.3"/>
			<polyline class="st2" points="90.5,26.3 85.6,29.5 85.6,32.5 92.4,28.3    "/>
			<g>
				<path class="st2" d="M139.8,25.6l2.5,1.4c-0.9,1.8-2.3,3.2-4,4.3c-1.8,1.1-3.7,1.6-5.8,1.6c-3,0-5.6-1.1-7.8-3.3      c-2.2-2.2-3.3-4.8-3.3-7.8c0-3.1,1.1-5.7,3.3-7.9c2.2-2.2,4.8-3.2,7.8-3.2c1.9,0,3.7,0.5,5.4,1.4c1.7,1,3,2.2,3.9,3.7      l-14.4,12.7c1.4,1.1,3.1,1.6,5,1.6c1.6,0,3-0.4,4.3-1.2C138,28,139,26.9,139.8,25.6z M125.5,26.3l12.3-10.9      c-1.5-1.3-3.4-2-5.4-2c-2.3,0-4.3,0.8-5.9,2.4c-1.6,1.6-2.4,3.6-2.4,5.9C124.2,23.4,124.6,24.9,125.5,26.3z"/>
			</g>
			<g>
				<g>
					<path class="st2" d="M105,25.4l2.5,1.4c-0.9,1.8-2.3,3.2-4,4.3c-1.8,1.1-3.7,1.6-5.8,1.6c-3,0-5.6-1.1-7.8-3.3       c-2.2-2.2-3.3-4.8-3.3-7.8c0-3.1,1.1-5.7,3.3-7.9c2.2-2.2,4.8-3.2,7.8-3.2c1.9,0,3.7,0.5,5.4,1.4c1.7,1,3,2.2,3.9,3.7       L92.7,28.2c1.4,1.1,3.1,1.6,5,1.6c1.6,0,3-0.4,4.3-1.2C103.3,27.9,104.3,26.8,105,25.4z M90.8,26.2l12.3-10.9       c-1.5-1.3-3.3-2-5.4-2c-2.3,0-4.3,0.8-5.9,2.4c-1.6,1.6-2.4,3.6-2.4,5.9C89.4,23.3,89.9,24.8,90.8,26.2z"/>
				</g>
			</g>
			<g>
				<path class="st2" d="M121,10.7h3.1l-9.3,21.8l-9.3-21.8h3.1l6.2,14.4L121,10.7z"/>
			</g>
			<g>
				<path class="st2" d="M142.5,32.4V11.3l2.4,2c1.6-1.7,3.6-2.5,6-2.5c2.4,0,4.4,0.8,6,2.4c1.6,1.6,2.4,3.6,2.4,6v13.2h-2.8V19.2      c0-1.6-0.5-2.9-1.6-4c-1.1-1-2.4-1.6-3.9-1.6c-1.5,0-2.9,0.5-3.9,1.6c-1.1,1.1-1.6,2.4-1.6,3.9v13.2H142.5z"/>
			</g>
			<g>
				<path class="st2" d="M162.5,14.3h-3.8v-2.8h3.8V5.5l2.8-1.4v7.3h3.8v2.8h-3.8v18.2h-2.8V14.3z"/>
			</g>
		</g>
		<g>
			<g>
				<path class="st4" d="M14.4,20.7L9.8,32.7L1,11h3l5.7,14l4.7-12.2L19.1,25l5.7-14h3L19,32.7L14.4,20.7z"/>
			</g>
		</g>
		<path class="st4" d="M39.5,13.4c-2.3,0-4.3,0.8-5.9,2.4c-1.6,1.6-2.4,3.6-2.4,5.9c0,1.7,0.5,3.2,1.4,4.6l12.3-10.9    C43.4,14.1,41.6,13.4,39.5,13.4z"/>
		<g>
			<path class="st4" d="M65.5,15.8c-1.6-1.6-3.6-2.4-5.9-2.4c-2.1,0-3.9,0.7-5.4,2l12.3,10.9c0.9-1.4,1.4-3,1.4-4.6     C67.9,19.4,67.1,17.4,65.5,15.8z"/>
			<path class="st4" d="M59.7,8c-4,0-7.6,1.7-10.1,4.5C47.1,9.7,43.5,8,39.5,8c-7.6,0-13.7,6.1-13.7,13.7c0,7.6,6.1,13.7,13.7,13.7     c4,0,7.6-1.7,10.1-4.5c2.5,2.7,6.1,4.5,10.1,4.5c7.6,0,13.7-6.1,13.7-13.7C73.4,14.1,67.3,8,59.7,8z M45.3,31.2     c-1.8,1.1-3.7,1.6-5.8,1.6c-3,0-5.6-1.1-7.8-3.3c-2.2-2.2-3.3-4.8-3.3-7.8c0-3.1,1.1-5.7,3.3-7.9c2.2-2.2,4.8-3.2,7.8-3.2     c1.9,0,3.7,0.5,5.4,1.4c1.7,1,3,2.2,3.9,3.7L34.5,28.3c1.4,1.1,3.1,1.6,5,1.6c1.6,0,3-0.4,4.3-1.2c1.3-0.8,2.3-1.9,3-3.2l2.5,1.4     C48.4,28.7,47.1,30.1,45.3,31.2z M67.5,29.5c-2.2,2.2-4.8,3.3-7.8,3.3c-2.1,0-4-0.5-5.8-1.6c-1.8-1.1-3.1-2.5-4-4.3l2.5-1.4     c0.7,1.4,1.7,2.5,3,3.2c1.3,0.8,2.7,1.2,4.3,1.2c1.9,0,3.6-0.5,5-1.6L50.2,15.7c0.9-1.5,2.2-2.7,3.9-3.7c1.7-1,3.5-1.4,5.4-1.4     c3,0,5.6,1.1,7.8,3.2c2.2,2.2,3.3,4.8,3.3,7.9C70.8,24.7,69.7,27.3,67.5,29.5z"/>
		</g>
	</g>
</g>
</svg>