<svg id="Layer_1" data-name="Layer 1" xmlns="http://www.w3.org/2000/svg" viewBox="0 0 35 35"><defs><style>.cls-1{fill:red;}</style></defs><title>youtube</title><path class="cls-1" d="M26.14,3.51v9.63H24.39V12.08a2.76,2.76,0,0,1-2,1.19,1.07,1.07,0,0,1-1.14-.71,5.1,5.1,0,0,1-.15-1.45V3.51h1.75v7.08a5.72,5.72,0,0,0,0,.68c0,.28.18.42.41.42s.71-.27,1.1-.83V3.51ZM19.68,6.64V10a3.81,3.81,0,0,1-.54,2.28,2.37,2.37,0,0,1-2.05,1,2.37,2.37,0,0,1-2-1A3.87,3.87,0,0,1,14.53,10V6.64a3.78,3.78,0,0,1,.54-2.26,2.37,2.37,0,0,1,2-1,2.37,2.37,0,0,1,2.05,1A3.78,3.78,0,0,1,19.68,6.64ZM12.54.21h2l-2.34,7.7v5.23H10.25V7.91A34,34,0,0,0,9.07,3.82C8.59,2.5,8.17,1.29,7.81.21H9.86l1.37,5.08ZM31.8,24.83a33.74,33.74,0,0,1-.5,6.75,3.68,3.68,0,0,1-1.12,1.91,3.33,3.33,0,0,1-2,.89,103,103,0,0,1-10.71.41,103,103,0,0,1-10.71-.41,3.39,3.39,0,0,1-2-.89A3.54,3.54,0,0,1,3.7,31.58a33.06,33.06,0,0,1-.5-6.75,33.74,33.74,0,0,1,.5-6.75,3.68,3.68,0,0,1,1.12-1.91,3.48,3.48,0,0,1,2-.91c2.36-.26,5.92-.38,10.69-.38s8.34.12,10.71.38a3.63,3.63,0,0,1,3.09,2.82A33.06,33.06,0,0,1,31.8,24.83ZM17.92,10.34v-4c0-.89-.27-1.33-.83-1.33s-.82.44-.82,1.33v4.05c0,.9.27,1.35.82,1.35S17.92,11.24,17.92,10.34ZM29.66,28v-.25H27.9a8.52,8.52,0,0,1,0,1.17.74.74,0,0,1-.77.7c-.59,0-.89-.45-.89-1.33V26.57h3.46v-2a3.81,3.81,0,0,0-.53-2.24,2.44,2.44,0,0,0-2-1,2.48,2.48,0,0,0-2.07,1,3.73,3.73,0,0,0-.54,2.24v3.34A3.67,3.67,0,0,0,25,30.16a2.51,2.51,0,0,0,2.09,1,2.35,2.35,0,0,0,2.08-1,2.43,2.43,0,0,0,.41-1A9.7,9.7,0,0,0,29.66,28Zm-6.53.19v-3.8A6.71,6.71,0,0,0,23,22.44a1.34,1.34,0,0,0-1.37-1.08,2.33,2.33,0,0,0-1.79,1V18.21H18.08V31H19.8v-.93a2.36,2.36,0,0,0,1.79,1.06A1.34,1.34,0,0,0,23,30.08,7,7,0,0,0,23.13,28.15ZM14.86,31h1.71V21.47H14.86v7.3c-.39.54-.76.81-1.1.81s-.37-.14-.41-.41a5.91,5.91,0,0,1,0-.67v-7H11.62V29a4.92,4.92,0,0,0,.15,1.41,1,1,0,0,0,1.12.71,2.82,2.82,0,0,0,2-1.18ZM9.3,20h2.06V18.21h-6V20h2V31H9.3Zm18.64,4.2v.89H26.2v-.89c0-.87.29-1.31.87-1.31S27.94,23.36,27.94,24.23Zm-6.52,0v4.08c0,.86-.25,1.29-.76,1.29a1.21,1.21,0,0,1-.86-.43v-5.8a1.21,1.21,0,0,1,.86-.43C21.17,22.92,21.42,23.35,21.42,24.21Z"/></svg>